<svg width="24" height="24" viewBox="0 0 24 24" fill="none" xmlns="http://www.w3.org/2000/svg">
<path d="M15.4688 20.4844L12 17.0156L13.4062 15.6094L15.4688 17.6719L20.5781 12.5156L21.9844 13.9219L15.4688 20.4844ZM13.8281 10.8281C13.0469 11.6094 12.1094 12 11.0156 12C9.92188 12 8.96875 11.6094 8.15625 10.8281C7.375 10.0469 6.98438 9.10938 6.98438 8.01562C6.98438 6.92188 7.375 5.98438 8.15625 5.20312C8.96875 4.39063 9.92188 3.98438 11.0156 3.98438C12.1094 3.98438 13.0469 4.39063 13.8281 5.20312C14.6094 5.98438 15 6.92188 15 8.01562C15 9.10938 14.6094 10.0469 13.8281 10.8281ZM9 17.0156L12 20.0156H3V18C3 16.8125 3.90625 15.8594 5.71875 15.1406C7.5625 14.3906 9.32812 14.0156 11.0156 14.0156C11.4844 14.0156 11.8125 14.0312 12 14.0625L9 17.0156Z" fill="#95FF4A"/>
</svg>
